<svg xmlns="http://www.w3.org/2000/svg" xmlns:xlink="http://www.w3.org/1999/xlink" viewBox="0 0 170.6 199.94"><defs><style>.cls-1{fill:none;}.cls-2{clip-path:url(#clip-path);}.cls-3{fill:#43b9b0;}</style><clipPath id="clip-path"><rect class="cls-1" x="0.03" width="198" height="200"/></clipPath></defs><title>importK3-2</title><g id="图层_2" data-name="图层 2"><g id="图层_1-2" data-name="图层 1"><g id="图层_2-2" data-name="图层 2"><g id="图层_1-2-2" data-name="图层 1-2"><g class="cls-2"><path class="cls-3" d="M168.84,161.4h-6.58a1.74,1.74,0,0,0-1.69,1.31,36.22,36.22,0,0,1-70.11.38H107a1.67,1.67,0,0,0,1.27-2.76l-22-25.76a1.67,1.67,0,0,0-2.55,0l-22,25.76A1.67,1.67,0,0,0,63,163.09H80.34a1.75,1.75,0,0,0,0,.43,46.13,46.13,0,0,0,90.18,0,1.75,1.75,0,0,0-1.72-2.12Z"/><path class="cls-3" d="M58.83,185.67H15.62a1.57,1.57,0,0,1-1.57-1.57V15.64a1.57,1.57,0,0,1,1.57-1.57h126a1.57,1.57,0,0,1,1.57,1.57V142.45a1.57,1.57,0,0,0,1.57,1.57h10.92a1.57,1.57,0,0,0,1.57-1.57V4.39A4.39,4.39,0,0,0,152.92,0H4.39A4.39,4.39,0,0,0,0,4.39v191a4.39,4.39,0,0,0,4.38,4.38H58.83a1.57,1.57,0,0,0,1.57-1.57V187.24a1.57,1.57,0,0,0-1.57-1.57Z"/></g><path class="cls-3" d="M125,36.24H32.31a.44.44,0,0,0-.44.44V49.85a.44.44,0,0,0,.44.44H125a.44.44,0,0,0,.44-.44V36.68A.44.44,0,0,0,125,36.24Z"/><path class="cls-3" d="M48.51,65.56v24.5l19-24.5H81.59L60.76,91l22.67,31.17h-15L48.51,93.44v28.72H36.25V65.56Z"/><path class="cls-3" d="M85,107.22H96.59a10.86,10.86,0,0,0,1.14,5q1.3,3,5.59,3.29a7.87,7.87,0,0,0,4.33-1.14q2.72-1.37,3-7.12.38-.92-1.76-4.75T97.51,98.34V90.68q.76.31,6.55-1t6.62-7.54q.15-.84-1-3.87t-5.74-3.48a7.25,7.25,0,0,0-3.37,1.3q-2.37,1.38-3.06,6H85.57a12.62,12.62,0,0,1,.27-2.34,16,16,0,0,1,2.07-5.28,14.65,14.65,0,0,1,5.63-5.28q3.91-2.26,11-2.41,3.91-.23,10.45,2.76t7.31,12.56q.23.92-1.57,5.28t-8.85,6.66q.61-.15,5.17,2.72t5.25,11.37q.38,2-3,7.89t-16,6.74q-.54,0-3.29-.31a26.07,26.07,0,0,1-6.28-1.65,14.42,14.42,0,0,1-6.13-4.56Q85,113,85,107.22Z"/></g></g></g></g></svg>