<?xml version="1.0" standalone="no"?><!DOCTYPE svg PUBLIC "-//W3C//DTD SVG 1.1//EN" "http://www.w3.org/Graphics/SVG/1.1/DTD/svg11.dtd"><svg t="1500963257466" class="icon" style="" viewBox="0 0 1024 1024" version="1.1" xmlns="http://www.w3.org/2000/svg" p-id="14866" xmlns:xlink="http://www.w3.org/1999/xlink" width="128" height="128"><defs><style type="text/css"></style></defs><path d="M511.773 64.223c247.181 0 447.561 199.892 447.561 446.472s-200.38 446.473-447.561 446.473S64.212 757.276 64.212 510.696 264.592 64.223 511.773 64.223z" fill="#3ebac4" p-id="14867"></path><path d="M426.61 696.557h173.772v76.688s-43.669 11.671-86.887 11.671c-43.665 0-86.885-11.671-86.885-11.671v-76.688z" fill="#EFD0AF" p-id="14868"></path><path d="M314.661 476.493s-1.058-10.004-15.038-10.004c-18.398 0-28.342 17.316-30.076 21.673-3.784 9.513-9.442 42.692 15.037 65.019 15.915 12.057 40.102 10.003 40.102 10.003l-10.025-86.691zM707.409 478.121s1.067-9.964 15.174-9.964c18.563 0 28.597 17.25 30.347 21.589 3.818 9.474 9.526 42.523-15.174 64.764-16.059 12.009-40.466 9.964-40.466 9.964l10.119-86.353z" fill="#F4DBBA" p-id="14869"></path><path d="M299.623 361.459s17.701 218.339 33.418 260.077c21.854 58.034 69.426 73.835 105.264 91.693 24.188 12.05 42.393 19.257 75.19 20.005 37.172 0.849 45.99-7.368 70.191-16.656 48.157-18.48 79.367-39.047 100.24-81.706 17.276-35.308 36.758-261.744 36.758-261.744l-70.177-86.692-350.884 75.023z" fill="#F4DBBA" p-id="14870"></path><path d="M515.168 956.634L411.571 784.917h205.52L515.168 956.634z" fill="#EDF2F2" p-id="14871"></path><path d="M513.495 783.249l26.243 32.973-12.875 20.376 7.596 103.351-19.292 16.685-22.606-17.08 7.567-102.956-13.153-21.008 26.52-32.341z" fill="#EF6565" p-id="14872"></path><path d="M480.579 180.095c-165.377 15.79-183.091 139.358-185.968 166.359-2.617 24.537 5.012 120.036 5.012 120.036s9.029 5.559 10.025 10.003c2.648 11.79 2.912 40.151 3.342 40.012 2.846-0.934 8.353 0 8.353 0s-2.25-103.994 3.343-123.37c6.146-21.296 48.455-41.68 48.455-41.68s0.017 8.483-3.342 16.672c-4.09 9.971-11.696 20.006-11.696 20.006s21.676-0.501 38.43-5.002c24.997-6.714 48.456-18.338 48.456-18.338s0.17 6.77-3.341 13.337c-3.154 5.901-10.026 11.67-10.026 11.67s76.775-5.88 133.671-25.007c45.93-15.443 74.345-44.928 74.345-44.928s37.444 13.942 50.971 76.603c11.203 51.905 6.69 94.614 6.682 128.371 0-0.517 10.024 0 10.024 0s0.334-29.873 1.674-40.01c2.373-17.983 20.033-16.144 20.051-16.672 0.455-14.327 13.719-94.629-0.002-155.046-10.797-47.542-54.007-91.848-78.531-103.364-24.523-11.514-72.532-38.952-169.928-29.652z" fill="#312B28" p-id="14873"></path><path d="M715.714 787.081c-45.735-22.528-101.202-20.503-101.202-20.503l-99.344 190.056c101.203 0 191.117-33.01 266.089-89.513-5.187-18.419-21.131-58.163-65.543-80.04zM515.168 956.634L408.993 766.578s-58.016-2.556-100.584 22.223c-35.25 20.518-58.983 63.983-66.119 78.352 74.964 56.483 171.692 89.481 272.878 89.481z" fill="#312B28" p-id="14874"></path><path d="M600.382 736.569l-86.887 46.68 45.114 56.683 78.532-70.02-36.759-33.343z" fill="#FFFFFF" p-id="14875"></path><path d="M426.61 736.569l86.885 46.68-45.112 55.017-78.532-68.354 36.759-33.343z" fill="#FFFFFF" p-id="14876"></path><path d="M515.089 673.822c-12.128 0-29.773-1.366-42.92-13.238-1.912-1.73-2.076-4.662-0.346-6.574 1.712-1.912 4.662-2.039 6.574-0.346 8.322 7.484 19.63 10.835 36.692 10.835 17.117 0 28.48-3.387 36.838-10.962a4.667 4.667 0 1 1 6.264 6.92c-13.22 11.981-30.938 13.365-43.102 13.365z" fill="#E2C6A3" p-id="14877"></path></svg>