<svg xmlns="http://www.w3.org/2000/svg" viewBox="0 0 59.2 59.2"><defs><style>.cls-1{fill:#b81c25;}</style></defs><title>rotating</title><g id="图层_2" data-name="图层 2"><g id="图层_1-2" data-name="图层 1"><path class="cls-1" d="M31,1.61a1.44,1.44,0,1,0-2.86,0V9.14a1.44,1.44,0,1,0,2.86,0Z"/><path class="cls-1" d="M10.82,8.8l-.11-.13a1.44,1.44,0,0,0-2,2l.12.1,5.33,5.33.1.12a1.44,1.44,0,1,0,2-2l-.13-.11Z"/><path class="cls-1" d="M1.61,28.17H1.44a1.44,1.44,0,1,0,0,2.88H9.29a1.44,1.44,0,1,0,0-2.88H1.61Z"/><path class="cls-1" d="M8.8,48.38l-.13.11a1.44,1.44,0,0,0,2,2l.1-.12,5.33-5.33.12-.1a1.44,1.44,0,0,0-2-2l-.11.13Z"/><path class="cls-1" d="M28.17,57.59a1.44,1.44,0,1,0,2.86,0V50.07a1.44,1.44,0,1,0-2.86,0Z"/><path class="cls-1" d="M48.38,50.4l.11.13a1.44,1.44,0,0,0,2-2l-.12-.1-5.33-5.33-.1-.12a1.44,1.44,0,0,0-2,2l.13.11Z"/><path class="cls-1" d="M57.59,31h.17a1.44,1.44,0,1,0,0-2.88H49.91a1.44,1.44,0,0,0,0,2.88h7.68Z"/><path class="cls-1" d="M50.4,10.82l.13-.11a1.44,1.44,0,0,0-2-2l-.1.12-5.33,5.33-.12.1a1.44,1.44,0,0,0,2,2l.11-.13Z"/><path class="cls-1" d="M4.51,17.11,4.36,17a1.44,1.44,0,1,0-1.15,2.64l.15.05,6.91,3,.14.07a1.44,1.44,0,0,0,1.15-2.64l-.16-.06Z"/><path class="cls-1" d="M3,38.51l-.16.05a1.44,1.44,0,1,0,1.06,2.68l.14-.06,7-2.76.15,0a1.44,1.44,0,1,0-1.06-2.68l-.15.07Z"/><path class="cls-1" d="M17.11,54.69l-.08.15A1.44,1.44,0,1,0,19.68,56l.05-.15,3-6.91.07-.14a1.44,1.44,0,1,0-2.7-1Z"/><path class="cls-1" d="M38.51,56.17a1.44,1.44,0,1,0,2.74-.89l-.06-.14-2.76-7,0-.15A1.44,1.44,0,0,0,35.69,49l.07.15Z"/><path class="cls-1" d="M54.69,42.09l.15.08A1.44,1.44,0,1,0,56,39.52l-.15-.05-6.91-3-.14-.07A1.44,1.44,0,0,0,47.65,39l.16.06Z"/><path class="cls-1" d="M56.17,20.69l.16-.05A1.44,1.44,0,0,0,55.28,18l-.14.06-7,2.76-.15,0A1.44,1.44,0,0,0,49,23.51l.15-.07Z"/><path class="cls-1" d="M42.09,4.51l.08-.15a1.44,1.44,0,1,0-2.64-1.15l-.05.15-3,6.91-.07.14a1.44,1.44,0,1,0,2.7,1Z"/><path class="cls-1" d="M20.69,3A1.44,1.44,0,1,0,18,3.92l.06.14,2.76,7,0,.15a1.44,1.44,0,1,0,2.68-1.06L23.44,10Z"/></g></g></svg>