<?xml version="1.0" standalone="no"?><!DOCTYPE svg PUBLIC "-//W3C//DTD SVG 1.1//EN" "http://www.w3.org/Graphics/SVG/1.1/DTD/svg11.dtd"><svg t="1496912338407" class="icon" style="" viewBox="0 0 1024 1024" version="1.1" xmlns="http://www.w3.org/2000/svg" p-id="2754" xmlns:xlink="http://www.w3.org/1999/xlink" width="26" height="26"><defs><style type="text/css"></style></defs><path d="M149.990594 958.716134c-0.533143-7.267521-0.808412-14.59644-0.808412-21.982664 0-181.139523 162.758897-328.506872 362.817306-328.506872 200.057385 0 362.818329 147.368372 362.818329 328.506872 0 7.387247-0.276293 14.716166-0.808412 21.982664l61.743226 0c0.436952-7.29515 0.663102-14.623046 0.663102-21.982664 0-53.088102-11.375072-104.572684-33.81413-153.023162-21.564132-46.563502-52.374858-88.326675-91.572602-124.129088-62.09115-56.70856-139.940193-93.641727-224.406956-107.349937 100.768031-31.966039 174.040848-126.878712 174.040848-238.695381 0-137.967258-111.549585-250.212692-248.663406-250.212692-137.112798 0-248.663406 112.245434-248.663406 250.212692 0 111.816668 73.27384 206.729342 174.040848 238.695381-84.466764 13.70821-162.316829 50.641377-224.406956 107.349937-39.198767 35.801391-70.00847 77.565587-91.572602 124.129088-22.437012 48.450479-33.81413 99.93506-33.81413 153.023162 0 7.359618 0.227174 14.688537 0.663102 21.982664L149.990594 958.716134zM326.770833 313.534879c0-102.771665 83.093487-186.381921 185.228655-186.381921s185.228655 83.610256 185.228655 186.381921c0 102.772688-83.092463 186.382944-185.228655 186.382944S326.770833 416.307567 326.770833 313.534879z" p-id="2755" fill="#bababa"></path></svg>